<?xml version="1.0" encoding="utf-8"?>
<!-- Generator: Adobe Illustrator 23.0.6, SVG Export Plug-In . SVG Version: 6.00 Build 0)  -->
<svg version="1.1" id="katman_1" xmlns="http://www.w3.org/2000/svg" xmlns:xlink="http://www.w3.org/1999/xlink" x="0px" y="0px"
	 viewBox="0 0 2500 534" style="enable-background:new 0 0 2500 534;" xml:space="preserve">
<style type="text/css">
	.st0{fill-rule:evenodd;clip-rule:evenodd;}
	.st1{fill:#04FF8E;}
	.st2{fill:#8E2EFF;}
	.st3{fill:#00C5FF;}
	.st4{fill:#FFF152;}
	.st5{fill:#FF5B5B;}
	.st6{fill:#551C99;}
	.st7{fill-rule:evenodd;clip-rule:evenodd;fill:#999131;}
	.st8{fill:#FFFFFF;}
</style>
<g>
	<path class="st0" d="M61.5,61h305.1V473H61.5V61z"/>
	<g>
		<path class="st1" d="M0.4,45.8h61v442.5h-61V45.8z"/>
		<path class="st2" d="M366.6,167.8h61v320.4h-61V167.8z"/>
		<path class="st3" d="M0.4,473h427.2v61H0.4V473z"/>
		<path class="st4" d="M0.4,0h244.1v61H0.4V0z"/>
		<path class="st5" d="M366.6,122.1V61h-61V0h-61v183.1h183.1v-61"/>
		<path class="st6" d="M366.6,244.1v-61h61"/>
	</g>
	<path class="st7" d="M244.6,0v61h-61"/>
	<path class="st8" d="M902.1,183.1c-30.5-29-67.1-36.6-94.6-36.6c-67.1,0-111.4,39.7-111.4,122.1c0,53.4,27.5,119,111.4,119
		c21.4,0,56.5-4.6,79.3-21.4v-53.4H781.6v-91.5h202.9v184.6c-25.9,53.4-97.6,80.9-178.5,80.9c-163.3,0-225.8-109.9-225.8-218.2
		S651.9,48.8,807.5,48.8c58,0,108.3,12.2,163.3,67.1L902.1,183.1z M1041,476V61h116v415H1041z M1347.6,363.1v111.4h-117.5V61h201.4
		c111.4,0,166.3,70.2,166.3,151c0,85.4-54.9,151-166.3,151L1347.6,363.1z M1347.6,263.9h83.9c32,0,48.8-24.4,48.8-50.3
		c0-27.5-16.8-51.9-48.8-51.9h-83.9V263.9z M1907.6,476V318.9h-149.5V476h-117.5V61h117.5v157.1h149.5V61h116v415H1907.6z
		 M2276.8,202.9l90-141.9h132.7v4.6l-164.8,244.1v164.8h-117.5V309.7L2060.2,65.6V61h132.7L2276.8,202.9z"/>
</g>
</svg>
